HIERARCHY
ROOT Hips
{
	OFFSET	0.00	0.00	0.00
	CHANNELS 6 Xposition Yposition Zposition Zrotation Xrotation Yrotation
	JOINT LeftUpLeg
	{
		OFFSET	 0.126116	-0.065224	 0.014019
		CHANNELS 3 Zrotation Xrotation Yrotation
		JOINT LeftLeg
		{
			OFFSET	 0.000000	 0.569914	 0.000000
			CHANNELS 3 Zrotation Xrotation Yrotation
			JOINT LeftFoot
			{
				OFFSET	 0.000000	 0.544423	 0.000000
				CHANNELS 3 Zrotation Xrotation Yrotation
				JOINT LeftToeBase
				{
					OFFSET	 0.000000	 0.207117	 0.000000
					CHANNELS 3 Zrotation Xrotation Yrotation
					End Site
					{
						OFFSET	 0.000000	 0.207117	 0.000000
					}
				}
			}
		}
	}
	JOINT RightUpLeg
	{
		OFFSET	-0.124023	-0.065224	 0.008373
		CHANNELS 3 Zrotation Xrotation Yrotation
		JOINT RightLeg
		{
			OFFSET	 0.000000	 0.570047	 0.000000
			CHANNELS 3 Zrotation Xrotation Yrotation
			JOINT RightFoot
			{
				OFFSET	 0.000000	 0.544354	 0.000000
				CHANNELS 3 Zrotation Xrotation Yrotation
				JOINT RightToeBase
				{
					OFFSET	 0.000000	 0.207540	 0.000000
					CHANNELS 3 Zrotation Xrotation Yrotation
					End Site
					{
						OFFSET	 0.000000	 0.207540	 0.000000
					}
				}
			}
		}
	}
	JOINT Spine
	{
		OFFSET	 0.000184	 0.117403	 0.007763
		CHANNELS 3 Zrotation Xrotation Yrotation
		JOINT Spine1
		{
			OFFSET	 0.000000	 0.137269	 0.000000
			CHANNELS 3 Zrotation Xrotation Yrotation
			JOINT Spine2
			{
				OFFSET	 0.000000	 0.156879	 0.000000
				CHANNELS 3 Zrotation Xrotation Yrotation
				JOINT LeftShoulder
				{
					OFFSET	 0.080501	 0.160143	 0.002496
					CHANNELS 3 Zrotation Xrotation Yrotation
					JOINT LeftArm
					{
						OFFSET	 0.000000	 0.164363	 0.000000
						CHANNELS 3 Zrotation Xrotation Yrotation
						JOINT LeftForeArm
						{
							OFFSET	 0.000000	 0.364576	 0.000000
							CHANNELS 3 Zrotation Xrotation Yrotation
							JOINT LeftHand
							{
								OFFSET	 0.000000	 0.360812	 0.000000
								CHANNELS 3 Zrotation Xrotation Yrotation
								JOINT LeftHandIndex1
								{
									OFFSET	 0.000000	 0.086006	 0.000000
									CHANNELS 3 Zrotation Xrotation Yrotation
									JOINT LeftHandIndex2
									{
										OFFSET	 0.000000	 0.047237	 0.000000
										CHANNELS 3 Zrotation Xrotation Yrotation
										JOINT LeftHandIndex3
										{
											OFFSET	-0.004284	 0.038165	 0.000551
											CHANNELS 3 Zrotation Xrotation Yrotation
											End Site
											{
												OFFSET	-0.004284	 0.038165	 0.000551
											}
										}
									}
								}
							}
						}
					}
				}
				JOINT Neck
				{
					OFFSET	 0.000000	 0.176489	 0.000000
					CHANNELS 3 Zrotation Xrotation Yrotation
					JOINT Head
					{
						OFFSET	 0.000000	 0.077941	 0.001747
						CHANNELS 3 Zrotation Xrotation Yrotation
						End Site
						{
							OFFSET	 0.000000	 0.077941	 0.001747
						}
					}
				}
				JOINT RightShoulder
				{
					OFFSET	-0.080363	 0.159706	-0.000306
					CHANNELS 3 Zrotation Xrotation Yrotation
					JOINT RightArm
					{
						OFFSET	 0.000000	 0.164196	 0.000000
						CHANNELS 3 Zrotation Xrotation Yrotation
						JOINT RightForeArm
						{
							OFFSET	 0.000000	 0.365611	 0.000000
							CHANNELS 3 Zrotation Xrotation Yrotation
							JOINT RightHand
							{
								OFFSET	 0.000000	 0.360648	 0.000000
								CHANNELS 3 Zrotation Xrotation Yrotation
								JOINT RightHandIndex1
								{
									OFFSET	 0.000000	 0.069977	 0.000000
									CHANNELS 3 Zrotation Xrotation Yrotation
									JOINT RightHandIndex2
									{
										OFFSET	 0.000000	 0.052305	 0.000000
										CHANNELS 3 Zrotation Xrotation Yrotation
										JOINT RightHandIndex3
										{
											OFFSET	 0.009002	 0.042196	 0.000782
											CHANNELS 3 Zrotation Xrotation Yrotation
											End Site
											{
												OFFSET	 0.009002	 0.042196	 0.000782
											}
										}
									}
								}
							}
						}
					}
				}
			}
		}
	}
}
MOTION
Frames:    6
Frame Time: 0.03333334
 0.606227	 1.098039	-0.178982	 17.436970	-15.045080	-86.309660	 160.736600	 36.002940	-7.335495	 20.889470	-75.502240	 28.887550	 51.227100	 26.532410	-53.938690	-0.017823	 42.656830	-3.759146	 150.632300	 64.467350	 15.804820	-14.296000	-70.759900	-14.897380	-61.907660	 64.130190	 86.455040	-1.645833	 33.310180	 2.847886	 4.192427	 11.622990	 7.170377	-9.457947	 1.711226	 6.993277	 12.913810	 19.025110	-0.490126	-102.535000	 3.814788	 91.005950	-18.759430	 68.557440	 29.600610	 41.605060	-1.526324	-8.963148	-14.192970	-8.199647	 52.846330	-2.503792	 1.462542	-8.362662	-6.949663	 7.829624	 1.962470	 4.963066	-4.014628	-0.346955	 12.280340	 3.994610	 2.267520	-0.329271	 7.272033	-44.567070	 89.195340	 6.062935	-91.991290	-68.142250	 40.882360	 75.117130	-75.016090	-5.747893	 16.466220	 11.048550	-23.239020	-13.833700	-3.029853	 16.604300	-2.219245	 14.259230	 21.747890	-6.416927	-8.239867	-2.131385	 0.447455
 0.631819	 1.121659	-0.181421	 15.609780	-11.946730	-79.226060	 165.538600	 23.162900	-10.346750	 11.918130	-65.941330	 19.845210	 51.189650	 31.345590	-57.772130	 0.334445	 41.105140	-4.071639	 147.469700	 56.911180	 23.154240	-11.440570	-66.514820	-12.146060	-59.323770	 62.106970	 82.474560	-1.647329	 33.333590	 2.849232	 4.199141	 10.238420	 7.546320	-9.849669	-0.047284	 6.620382	 13.735300	 17.308040	-1.462875	-101.636100	 2.466903	 91.028820	-15.255510	 70.088760	 26.141210	 35.278880	-1.246207	-9.339538	-12.163460	-7.007779	 52.532320	-2.260775	 3.881909	-8.248156	-6.991555	 8.057347	 2.007833	 4.963066	-4.014628	-0.346955	 13.802620	 4.420632	 1.408932	-1.695304	 6.644382	-45.144480	 89.575530	 4.126986	-92.238770	-70.754050	 36.261040	 80.394090	-74.074770	-5.668324	 16.278560	 10.010200	-25.343330	-19.379490	-2.914322	 16.767190	-2.392887	 14.270410	 21.973960	-6.481856	-8.239867	-2.131385	 0.447455
 0.660537	 1.133970	-0.173996	 14.886090	-9.718270	-71.189070	 166.612200	 16.219840	-7.874315	 7.747919	-55.631990	 14.370250	 53.777570	 40.408600	-68.290300	 1.320155	 40.249510	-5.664865	 141.328300	 50.341360	 32.976320	-10.163780	-63.969150	-10.762320	-55.406980	 61.445110	 78.455490	-1.648965	 33.358470	 2.850599	 3.633485	 9.310691	 7.893064	-8.594498	-0.940431	 6.470525	 12.528290	 15.052020	-2.999002	-101.562900	 0.787073	 91.348160	-8.313913	 68.926030	 19.001140	 33.514610	-1.151805	-9.576258	-8.818036	-5.617650	 50.802540	-2.426038	 9.080621	-7.955056	-7.013326	 8.125386	 2.021535	 4.963066	-4.014628	-0.346955	 15.216800	 2.945230	 0.249517	-2.425259	 4.405370	-46.317180	 88.963390	 1.828404	-91.910050	-69.159570	 32.484200	 84.816060	-74.156510	-5.624175	 16.090160	 10.142610	-31.042430	-21.742310	-2.913210	 16.700240	-2.508799	 14.302240	 22.283510	-6.576258	-8.239867	-2.131385	 0.447455
 0.688436	 1.136576	-0.166196	 13.809140	-7.897250	-63.206800	 167.247500	 13.273580	-4.415419	 6.130563	-49.195110	 11.064180	 60.226450	 47.487750	-81.930500	 2.263265	 39.372800	-7.220353	 136.949700	 43.900380	 41.006770	-9.736739	-62.996850	-10.142560	-53.570780	 61.319450	 76.488490	-1.650603	 33.383360	 2.851968	 2.965498	 8.582834	 7.793656	-6.407209	 0.269288	 6.031058	 10.889580	 11.974230	-4.509655	-101.480300	-0.893892	 91.669930	-2.038534	 67.480040	 12.498640	 34.136050	-1.161599	-9.736738	-7.017524	-3.401510	 47.772670	-2.621903	 14.280050	-7.640847	-7.035138	 8.193489	 2.035279	 4.963066	-4.014628	-0.346955	 16.600620	 1.440701	-0.872944	-3.207654	 2.273861	-47.508700	 88.364200	-0.475533	-91.605810	-66.197040	 29.710740	 89.662400	-74.876270	-5.590315	 15.825470	 7.676387	-33.855330	-24.136510	-2.912239	 16.633220	-2.624788	 14.334720	 22.593310	-6.671154	-8.239867	-2.131385	 0.447455
 0.726134	 1.141973	-0.161545	 12.952320	-6.375147	-56.916460	 166.894300	 11.880460	 1.015354	 5.361337	-45.381790	 10.011800	 66.623590	 48.057190	-88.743900	 2.129977	 34.768750	-7.481153	 135.244000	 39.698380	 45.519140	-8.781033	-60.553370	-8.975310	-49.422100	 59.951640	 71.590320	-1.682266	 33.257760	 2.927172	 2.587314	 8.084004	 8.173146	-6.111900	 0.361940	 6.020470	 9.972714	 10.898480	-6.132674	-101.527300	-1.924808	 93.178220	 8.454128	 65.365490	 1.072469	 33.626370	-1.120761	-9.938144	-1.911789	-3.235781	 48.849640	-3.075079	 15.058290	-7.449655	-7.058659	 8.270145	 2.049755	 4.963066	-4.014628	-0.346955	 16.838170	-1.564772	-2.178968	-2.425792	-0.159791	-48.198790	 87.977070	-2.634976	-91.273120	-59.988880	 24.569320	 90.416080	-72.902610	-5.492060	 15.834210	 12.177210	-39.919860	-21.275850	-2.911125	 16.566990	-2.739453	 14.348830	 22.819610	-6.737369	-8.239867	-2.131385	 0.447455
 0.767534	 1.142762	-0.158697	 12.068090	-5.173375	-51.206250	 165.720000	 13.426640	 6.098930	 5.454626	-45.874450	 10.038890	 73.512440	 47.353490	-93.805460	 1.762774	 29.350930	-7.457203	 133.761700	 36.596200	 49.369050	-8.068010	-58.447270	-8.014274	-45.476560	 58.206740	 66.590610	-1.720223	 33.097900	 3.018498	 2.209615	 7.761379	 8.383485	-5.584570	 1.005547	 5.872095	 8.988744	 10.088570	-7.711648	-101.583600	-2.765169	 94.941350	 17.741930	 62.557770	-9.332783	 34.137100	-1.124055	-10.102190	 3.035967	-2.992065	 49.841630	-3.573254	 14.705570	-7.301651	-7.081953	 8.346744	 2.064025	 4.963066	-4.014628	-0.346955	 16.716260	-4.858495	-3.507425	-1.248466	-2.553188	-48.761910	 87.662560	-4.698383	-90.949000	-53.024660	 19.118040	 91.042420	-69.463060	-5.341677	 15.972240	 16.853790	-45.531340	-16.956490	-2.910103	 16.502860	-2.850467	 14.358040	 23.018430	-6.794528	-8.239867	-2.131385	 0.447455
